# xmcd
#
# Track frame offsets:
#	150
#	34446
#	62814
#	88876
#	123315
#	157162
#	201949
#	257847
#	287546
#
# Disc length: 4222 seconds
# Revision: 0
# Processed by: cddbd v1.5.2PL0 Copyright (c) Steve Scherf et al.
# Submitted via: dBpowerAMP V12.0
#
DISCID=89107c09
DTITLE=Luke Pytel Band - Live In Chicago
DYEAR=1900
DGENRE=Blues
TTITLE0=I'll Play The Blues For You
TTITLE1=Last Two Dollars
TTITLE2=Stormy Monday
TTITLE3=The Sky Is Crying
TTITLE4=I'm Tore Down
TTITLE5=Why You So Mean?
TTITLE6=Cissy Strut
TTITLE7=You Don't Have To Go
TTITLE8=Chameleon
EXTD=
EXTT0=
EXTT1=
EXTT2=
EXTT3=
EXTT4=
EXTT5=
EXTT6=
EXTT7=
EXTT8=
PLAYORDER=
